<svg width="304" height="46" viewBox="0 0 304 46" fill="none" xmlns="http://www.w3.org/2000/svg">
    <path d="M37.4408 17.2C37.4408 19.2333 36.9742 21.1 36.0408 22.8C35.1075 24.4667 33.6742 25.8167 31.7408 26.85C29.8075 27.8833 27.4075 28.4 24.5408 28.4H19.2408V41H10.6908V5.9H24.5408C27.3408 5.9 29.7075 6.38333 31.6408 7.35C33.5742 8.31666 35.0242 9.65 35.9908 11.35C36.9575 13.05 37.4408 15 37.4408 17.2ZM23.8908 21.6C25.5242 21.6 26.7408 21.2167 27.5408 20.45C28.3408 19.6833 28.7408 18.6 28.7408 17.2C28.7408 15.8 28.3408 14.7167 27.5408 13.95C26.7408 13.1833 25.5242 12.8 23.8908 12.8H19.2408V21.6H23.8908ZM59.042 12.8C62.242 12.8 64.8087 13.8667 66.742 16C68.6753 18.1 69.642 21 69.642 24.7V41H61.142V25.85C61.142 23.9833 60.6587 22.5333 59.692 21.5C58.7253 20.4667 57.4253 19.95 55.792 19.95C54.1587 19.95 52.8587 20.4667 51.892 21.5C50.9253 22.5333 50.442 23.9833 50.442 25.85V41H41.892V4H50.442V16.85C51.3087 15.6167 52.492 14.6333 53.992 13.9C55.492 13.1667 57.1753 12.8 59.042 12.8ZM88.2834 41.4C85.5501 41.4 83.0834 40.8167 80.8834 39.65C78.7167 38.4833 77.0001 36.8167 75.7334 34.65C74.5001 32.4833 73.8834 29.95 73.8834 27.05C73.8834 24.1833 74.5167 21.6667 75.7834 19.5C77.0501 17.3 78.7834 15.6167 80.9834 14.45C83.1834 13.2833 85.6501 12.7 88.3834 12.7C91.1167 12.7 93.5834 13.2833 95.7834 14.45C97.9834 15.6167 99.7167 17.3 100.983 19.5C102.25 21.6667 102.883 24.1833 102.883 27.05C102.883 29.9167 102.233 32.45 100.933 34.65C99.6667 36.8167 97.9167 38.4833 95.6834 39.65C93.4834 40.8167 91.0167 41.4 88.2834 41.4ZM88.2834 34C89.9167 34 91.3001 33.4 92.4334 32.2C93.6001 31 94.1834 29.2833 94.1834 27.05C94.1834 24.8167 93.6167 23.1 92.4834 21.9C91.3834 20.7 90.0167 20.1 88.3834 20.1C86.7167 20.1 85.3334 20.7 84.2334 21.9C83.1334 23.0667 82.5834 24.7833 82.5834 27.05C82.5834 29.2833 83.1167 31 84.1834 32.2C85.2834 33.4 86.6501 34 88.2834 34ZM122.969 33.75V41H118.619C115.519 41 113.103 40.25 111.369 38.75C109.636 37.2167 108.769 34.7333 108.769 31.3V20.2H105.369V13.1H108.769V6.3H117.319V13.1H122.919V20.2H117.319V31.4C117.319 32.2333 117.519 32.8333 117.919 33.2C118.319 33.5667 118.986 33.75 119.919 33.75H122.969ZM140.432 41.4C137.699 41.4 135.232 40.8167 133.032 39.65C130.865 38.4833 129.149 36.8167 127.882 34.65C126.649 32.4833 126.032 29.95 126.032 27.05C126.032 24.1833 126.665 21.6667 127.932 19.5C129.199 17.3 130.932 15.6167 133.132 14.45C135.332 13.2833 137.799 12.7 140.532 12.7C143.265 12.7 145.732 13.2833 147.932 14.45C150.132 15.6167 151.865 17.3 153.132 19.5C154.399 21.6667 155.032 24.1833 155.032 27.05C155.032 29.9167 154.382 32.45 153.082 34.65C151.815 36.8167 150.065 38.4833 147.832 39.65C145.632 40.8167 143.165 41.4 140.432 41.4ZM140.432 34C142.065 34 143.449 33.4 144.582 32.2C145.749 31 146.332 29.2833 146.332 27.05C146.332 24.8167 145.765 23.1 144.632 21.9C143.532 20.7 142.165 20.1 140.532 20.1C138.865 20.1 137.482 20.7 136.382 21.9C135.282 23.0667 134.732 24.7833 134.732 27.05C134.732 29.2833 135.265 31 136.332 32.2C137.432 33.4 138.799 34 140.432 34Z" fill="white"/>
    <path d="M180.818 23C182.851 23.4333 184.484 24.45 185.718 26.05C186.951 27.6167 187.568 29.4167 187.568 31.45C187.568 34.3833 186.534 36.7167 184.468 38.45C182.434 40.15 179.584 41 175.918 41H159.568V5.9H175.368C178.934 5.9 181.718 6.71666 183.718 8.35C185.751 9.98333 186.768 12.2 186.768 15C186.768 17.0667 186.218 18.7833 185.118 20.15C184.051 21.5167 182.618 22.4667 180.818 23ZM168.118 20.1H173.718C175.118 20.1 176.184 19.8 176.918 19.2C177.684 18.5667 178.068 17.65 178.068 16.45C178.068 15.25 177.684 14.3333 176.918 13.7C176.184 13.0667 175.118 12.75 173.718 12.75H168.118V20.1ZM174.418 34.1C175.851 34.1 176.951 33.7833 177.718 33.15C178.518 32.4833 178.918 31.5333 178.918 30.3C178.918 29.0667 178.501 28.1 177.668 27.4C176.868 26.7 175.751 26.35 174.318 26.35H168.118V34.1H174.418ZM261.055 33.75V41H256.705C253.605 41 251.189 40.25 249.455 38.75C247.722 37.2167 246.855 34.7333 246.855 31.3V20.2H243.455V13.1H246.855V6.3H255.405V13.1H261.005V20.2H255.405V31.4C255.405 32.2333 255.605 32.8333 256.005 33.2C256.405 33.5667 257.072 33.75 258.005 33.75H261.055ZM282.968 12.8C286.168 12.8 288.734 13.8667 290.668 16C292.601 18.1 293.568 21 293.568 24.7V41H285.068V25.85C285.068 23.9833 284.584 22.5333 283.618 21.5C282.651 20.4667 281.351 19.95 279.718 19.95C278.084 19.95 276.784 20.4667 275.818 21.5C274.851 22.5333 274.368 23.9833 274.368 25.85V41H265.818V4H274.368V16.85C275.234 15.6167 276.418 14.6333 277.918 13.9C279.418 13.1667 281.101 12.8 282.968 12.8Z" fill="#1D1617"/>
    <path d="M239.49 25.3293C239.49 32.9286 234.578 38.1585 229.553 38.1585C224.529 38.1585 219.617 32.9286 219.617 25.3293C219.617 17.73 224.529 12.5 229.553 12.5C234.578 12.5 239.49 17.73 239.49 25.3293Z" stroke="#1D1617" stroke-width="5"/>
    <path d="M213.373 25.3293C213.373 32.9286 208.461 38.1585 203.436 38.1585C198.412 38.1585 193.5 32.9286 193.5 25.3293C193.5 17.73 198.412 12.5 203.436 12.5C208.461 12.5 213.373 17.73 213.373 25.3293Z" stroke="#1D1617" stroke-width="5"/>
    <circle cx="199.5" cy="25.5" r="4.5" fill="#1D1617"/>
    <circle cx="225.5" cy="25.5" r="4.5" fill="#1D1617"/>
</svg>
