<svg width="294" height="46" viewBox="0 0 294 46" fill="none" xmlns="http://www.w3.org/2000/svg">
<path d="M15.775 24.025C17.0083 24.025 18.0833 23.875 19 23.575C19.9167 23.2583 20.675 22.8167 21.275 22.25C21.8917 21.6667 22.35 20.9667 22.65 20.15C22.95 19.3167 23.1 18.3917 23.1 17.375C23.1 16.4083 22.95 15.5333 22.65 14.75C22.35 13.9667 21.9 13.3 21.3 12.75C20.7 12.2 19.9417 11.7833 19.025 11.5C18.1083 11.2 17.025 11.05 15.775 11.05H10.75V24.025H15.775ZM15.775 5.85C18.1917 5.85 20.2833 6.13333 22.05 6.7C23.8167 7.26667 25.275 8.05833 26.425 9.075C27.575 10.0917 28.425 11.3083 28.975 12.725C29.5417 14.1417 29.825 15.6917 29.825 17.375C29.825 19.125 29.5333 20.7333 28.95 22.2C28.3667 23.65 27.4917 24.9 26.325 25.95C25.1583 27 23.6917 27.8167 21.925 28.4C20.175 28.9833 18.125 29.275 15.775 29.275H10.75V42H4.025V5.85H15.775ZM40.0844 19.1C41.0844 18.1667 42.1844 17.4083 43.3844 16.825C44.5844 16.2417 45.9927 15.95 47.6094 15.95C49.0094 15.95 50.251 16.1917 51.3344 16.675C52.4177 17.1417 53.3177 17.8083 54.0344 18.675C54.7677 19.525 55.3177 20.55 55.6844 21.75C56.0677 22.9333 56.2594 24.2417 56.2594 25.675V42H50.0844V25.675C50.0844 24.1083 49.726 22.9 49.0094 22.05C48.2927 21.1833 47.201 20.75 45.7344 20.75C44.6677 20.75 43.6677 20.9917 42.7344 21.475C41.801 21.9583 40.9177 22.6167 40.0844 23.45V42H33.9094V4.85H40.0844V19.1ZM107.157 42.4C104.923 42.4 103.207 41.775 102.007 40.525C100.823 39.2583 100.232 37.5167 100.232 35.3V20.975H97.6066C97.2733 20.975 96.99 20.8667 96.7566 20.65C96.5233 20.4333 96.4066 20.1083 96.4066 19.675V17.225L100.532 16.55L101.832 9.55C101.915 9.21666 102.073 8.95833 102.307 8.775C102.54 8.59167 102.84 8.5 103.207 8.5H106.407V16.575H113.257V20.975H106.407V34.875C106.407 35.675 106.598 36.3 106.982 36.75C107.382 37.2 107.923 37.425 108.607 37.425C108.99 37.425 109.307 37.3833 109.557 37.3C109.823 37.2 110.048 37.1 110.232 37C110.432 36.9 110.607 36.8083 110.757 36.725C110.907 36.625 111.057 36.575 111.207 36.575C111.39 36.575 111.54 36.625 111.657 36.725C111.773 36.8083 111.898 36.9417 112.032 37.125L113.882 40.125C112.982 40.875 111.948 41.4417 110.782 41.825C109.615 42.2083 108.407 42.4 107.157 42.4ZM128.365 15.95C130.265 15.95 131.99 16.2583 133.54 16.875C135.107 17.4917 136.44 18.3667 137.54 19.5C138.657 20.6333 139.515 22.0167 140.115 23.65C140.715 25.2833 141.015 27.1083 141.015 29.125C141.015 31.1583 140.715 32.9917 140.115 34.625C139.515 36.2583 138.657 37.65 137.54 38.8C136.44 39.95 135.107 40.8333 133.54 41.45C131.99 42.0667 130.265 42.375 128.365 42.375C126.448 42.375 124.707 42.0667 123.14 41.45C121.573 40.8333 120.232 39.95 119.115 38.8C118.015 37.65 117.157 36.2583 116.54 34.625C115.94 32.9917 115.64 31.1583 115.64 29.125C115.64 27.1083 115.94 25.2833 116.54 23.65C117.157 22.0167 118.015 20.6333 119.115 19.5C120.232 18.3667 121.573 17.4917 123.14 16.875C124.707 16.2583 126.448 15.95 128.365 15.95ZM128.365 37.625C130.498 37.625 132.073 36.9083 133.09 35.475C134.123 34.0417 134.64 31.9417 134.64 29.175C134.64 26.4083 134.123 24.3 133.09 22.85C132.073 21.4 130.498 20.675 128.365 20.675C126.198 20.675 124.59 21.4083 123.54 22.875C122.507 24.325 121.99 26.425 121.99 29.175C121.99 31.925 122.507 34.025 123.54 35.475C124.59 36.9083 126.198 37.625 128.365 37.625ZM172.384 36.75C173.634 36.75 174.684 36.6 175.534 36.3C176.384 36 177.059 35.6 177.559 35.1C178.076 34.6 178.442 34.0167 178.659 33.35C178.892 32.6833 179.009 31.975 179.009 31.225C179.009 30.4417 178.884 29.7417 178.634 29.125C178.384 28.4917 177.992 27.9583 177.459 27.525C176.926 27.075 176.234 26.7333 175.384 26.5C174.551 26.2667 173.542 26.15 172.359 26.15H165.584V36.75H172.384ZM165.584 11.05V21.5H170.934C173.234 21.5 174.967 21.0833 176.134 20.25C177.317 19.4167 177.909 18.0917 177.909 16.275C177.909 14.3917 177.376 13.05 176.309 12.25C175.242 11.45 173.576 11.05 171.309 11.05H165.584ZM171.309 5.85C173.676 5.85 175.701 6.075 177.384 6.525C179.067 6.975 180.442 7.61667 181.509 8.45C182.592 9.28333 183.384 10.2917 183.884 11.475C184.384 12.6583 184.634 13.9917 184.634 15.475C184.634 16.325 184.509 17.1417 184.259 17.925C184.009 18.6917 183.617 19.4167 183.084 20.1C182.567 20.7667 181.901 21.375 181.084 21.925C180.284 22.475 179.326 22.9417 178.209 23.325C183.176 24.4417 185.659 27.125 185.659 31.375C185.659 32.9083 185.367 34.325 184.784 35.625C184.201 36.925 183.351 38.05 182.234 39C181.117 39.9333 179.742 40.6667 178.109 41.2C176.476 41.7333 174.609 42 172.509 42H158.859V5.85H171.309ZM201.802 15.95C203.702 15.95 205.427 16.2583 206.977 16.875C208.544 17.4917 209.877 18.3667 210.977 19.5C212.094 20.6333 212.952 22.0167 213.552 23.65C214.152 25.2833 214.452 27.1083 214.452 29.125C214.452 31.1583 214.152 32.9917 213.552 34.625C212.952 36.2583 212.094 37.65 210.977 38.8C209.877 39.95 208.544 40.8333 206.977 41.45C205.427 42.0667 203.702 42.375 201.802 42.375C199.886 42.375 198.144 42.0667 196.577 41.45C195.011 40.8333 193.669 39.95 192.552 38.8C191.452 37.65 190.594 36.2583 189.977 34.625C189.377 32.9917 189.077 31.1583 189.077 29.125C189.077 27.1083 189.377 25.2833 189.977 23.65C190.594 22.0167 191.452 20.6333 192.552 19.5C193.669 18.3667 195.011 17.4917 196.577 16.875C198.144 16.2583 199.886 15.95 201.802 15.95ZM201.802 37.625C203.936 37.625 205.511 36.9083 206.527 35.475C207.561 34.0417 208.077 31.9417 208.077 29.175C208.077 26.4083 207.561 24.3 206.527 22.85C205.511 21.4 203.936 20.675 201.802 20.675C199.636 20.675 198.027 21.4083 196.977 22.875C195.944 24.325 195.427 26.425 195.427 29.175C195.427 31.925 195.944 34.025 196.977 35.475C198.027 36.9083 199.636 37.625 201.802 37.625ZM230.513 15.95C232.413 15.95 234.138 16.2583 235.688 16.875C237.255 17.4917 238.588 18.3667 239.688 19.5C240.805 20.6333 241.663 22.0167 242.263 23.65C242.863 25.2833 243.163 27.1083 243.163 29.125C243.163 31.1583 242.863 32.9917 242.263 34.625C241.663 36.2583 240.805 37.65 239.688 38.8C238.588 39.95 237.255 40.8333 235.688 41.45C234.138 42.0667 232.413 42.375 230.513 42.375C228.597 42.375 226.855 42.0667 225.288 41.45C223.722 40.8333 222.38 39.95 221.263 38.8C220.163 37.65 219.305 36.2583 218.688 34.625C218.088 32.9917 217.788 31.1583 217.788 29.125C217.788 27.1083 218.088 25.2833 218.688 23.65C219.305 22.0167 220.163 20.6333 221.263 19.5C222.38 18.3667 223.722 17.4917 225.288 16.875C226.855 16.2583 228.597 15.95 230.513 15.95ZM230.513 37.625C232.647 37.625 234.222 36.9083 235.238 35.475C236.272 34.0417 236.788 31.9417 236.788 29.175C236.788 26.4083 236.272 24.3 235.238 22.85C234.222 21.4 232.647 20.675 230.513 20.675C228.347 20.675 226.738 21.4083 225.688 22.875C224.655 24.325 224.138 26.425 224.138 29.175C224.138 31.925 224.655 34.025 225.688 35.475C226.738 36.9083 228.347 37.625 230.513 37.625ZM255.936 42.4C253.703 42.4 251.986 41.775 250.786 40.525C249.603 39.2583 249.011 37.5167 249.011 35.3V20.975H246.386C246.053 20.975 245.769 20.8667 245.536 20.65C245.303 20.4333 245.186 20.1083 245.186 19.675V17.225L249.311 16.55L250.611 9.55C250.694 9.21666 250.853 8.95833 251.086 8.775C251.319 8.59167 251.619 8.5 251.986 8.5H255.186V16.575H262.036V20.975H255.186V34.875C255.186 35.675 255.378 36.3 255.761 36.75C256.161 37.2 256.703 37.425 257.386 37.425C257.769 37.425 258.086 37.3833 258.336 37.3C258.603 37.2 258.828 37.1 259.011 37C259.211 36.9 259.386 36.8083 259.536 36.725C259.686 36.625 259.836 36.575 259.986 36.575C260.169 36.575 260.319 36.625 260.436 36.725C260.553 36.8083 260.678 36.9417 260.811 37.125L262.661 40.125C261.761 40.875 260.728 41.4417 259.561 41.825C258.394 42.2083 257.186 42.4 255.936 42.4ZM272.164 19.1C273.164 18.1667 274.264 17.4083 275.464 16.825C276.664 16.2417 278.073 15.95 279.689 15.95C281.089 15.95 282.331 16.1917 283.414 16.675C284.498 17.1417 285.398 17.8083 286.114 18.675C286.848 19.525 287.398 20.55 287.764 21.75C288.148 22.9333 288.339 24.2417 288.339 25.675V42H282.164V25.675C282.164 24.1083 281.806 22.9 281.089 22.05C280.373 21.1833 279.281 20.75 277.814 20.75C276.748 20.75 275.748 20.9917 274.814 21.475C273.881 21.9583 272.998 22.6167 272.164 23.45V42H265.989V4.85H272.164V19.1Z" fill="white"/>
<path d="M93.9062 30.7915C93.8484 30.9708 93.7873 31.1492 93.7228 31.3266L93.3743 31.199L93.3323 31.1264L93.9062 30.7915ZM93.3749 31.2001L93.7225 31.3274C93.6876 31.4234 93.6516 31.5192 93.6147 31.6147L93.3749 31.2001Z" fill="#1C1B1F" stroke="#00C8B0" stroke-width="14"/>
</svg>
