<svg width="44" height="27" viewBox="0 0 44 27" fill="none" xmlns="http://www.w3.org/2000/svg">
    <path d="M42 13.228C42 19.8401 37.7202 24.456 33.2683 24.456C28.8164 24.456 24.5366 19.8401 24.5366 13.228C24.5366 6.61584 28.8164 2 33.2683 2C37.7202 2 42 6.61584 42 13.228Z" stroke="currentColor" stroke-width="4"/>
    <path d="M19.4634 13.228C19.4634 19.8401 15.1836 24.456 10.7317 24.456C6.27981 24.456 2 19.8401 2 13.228C2 6.61584 6.27981 2 10.7317 2C15.1836 2 19.4634 6.61584 19.4634 13.228Z" stroke="currentColor" stroke-width="4"/>
    <circle cx="7.33484" cy="13.3753" r="2" fill="#1D1617" stroke="currentColor" stroke-width="3.76631"/>
    <circle cx="29.7708" cy="13.3753" r="2" fill="#1D1617" stroke="currentColor" stroke-width="3.76631"/>
</svg>
